<mxfile host="app.diagrams.net" agent="Mozilla/5.0 (Macintosh; Intel Mac OS X 10_15_7) AppleWebKit/605.1.15 (KHTML, like Gecko) Version/18.5 Safari/605.1.15" version="28.0.6" pages="4">
  <diagram name="第 1 页" id="RgBn6xL1z4RANqzDxZkw">
    <mxGraphModel dx="2219" dy="2288" grid="1" gridSize="10" guides="1" tooltips="1" connect="1" arrows="1" fold="1" page="1" pageScale="1" pageWidth="827" pageHeight="1169" math="0" shadow="0">
      <root>
        <mxCell id="0" />
        <mxCell id="1" parent="0" />
        <mxCell id="PVWl-y0vggtVZ4M3-jDT-1" value="" style="rounded=0;whiteSpace=wrap;html=1;container=0;" parent="1" vertex="1">
          <mxGeometry y="82" width="460" height="298" as="geometry" />
        </mxCell>
        <mxCell id="PVWl-y0vggtVZ4M3-jDT-52" value="" style="line;strokeWidth=2;direction=south;html=1;dashed=1;strokeColor=#E6E6E6;" parent="1" vertex="1">
          <mxGeometry x="380" width="10" height="450" as="geometry" />
        </mxCell>
        <mxCell id="PVWl-y0vggtVZ4M3-jDT-9" value="" style="rounded=0;whiteSpace=wrap;html=1;fillColor=none;container=0;" parent="1" vertex="1">
          <mxGeometry y="145" width="370" height="194" as="geometry" />
        </mxCell>
        <mxCell id="PVWl-y0vggtVZ4M3-jDT-59" value="" style="line;strokeWidth=2;html=1;dashed=1;strokeColor=#E6E6E6;" parent="1" vertex="1">
          <mxGeometry y="465" width="380" height="10" as="geometry" />
        </mxCell>
        <mxCell id="PVWl-y0vggtVZ4M3-jDT-57" value="" style="line;strokeWidth=2;html=1;dashed=1;strokeColor=#E6E6E6;" parent="1" vertex="1">
          <mxGeometry x="-1" y="445" width="411" height="10" as="geometry" />
        </mxCell>
        <mxCell id="PVWl-y0vggtVZ4M3-jDT-56" value="" style="line;strokeWidth=2;html=1;dashed=1;strokeColor=#E6E6E6;" parent="1" vertex="1">
          <mxGeometry x="-1" y="485" width="371" height="10" as="geometry" />
        </mxCell>
        <mxCell id="PVWl-y0vggtVZ4M3-jDT-24" value="8.2mm" style="shape=curlyBracket;whiteSpace=wrap;html=1;rounded=1;flipH=1;labelPosition=right;verticalLabelPosition=middle;align=left;verticalAlign=middle;" parent="1" vertex="1">
          <mxGeometry x="570" width="19" height="82" as="geometry" />
        </mxCell>
        <mxCell id="PVWl-y0vggtVZ4M3-jDT-45" value="41.5mm" style="shape=partialRectangle;whiteSpace=wrap;html=1;top=0;bottom=0;fillColor=none;" parent="1" vertex="1">
          <mxGeometry y="390" width="415" height="120" as="geometry" />
        </mxCell>
        <mxCell id="PVWl-y0vggtVZ4M3-jDT-26" value="6.3mm" style="shape=curlyBracket;whiteSpace=wrap;html=1;rounded=1;flipH=1;labelPosition=right;verticalLabelPosition=middle;align=left;verticalAlign=middle;" parent="1" vertex="1">
          <mxGeometry x="570" y="82" width="20" height="63" as="geometry" />
        </mxCell>
        <mxCell id="PVWl-y0vggtVZ4M3-jDT-43" value="" style="line;strokeWidth=2;html=1;dashed=1;strokeColor=#E6E6E6;" parent="1" vertex="1">
          <mxGeometry x="-10" y="140" width="570" height="10" as="geometry" />
        </mxCell>
        <mxCell id="PVWl-y0vggtVZ4M3-jDT-2" value="" style="rounded=0;whiteSpace=wrap;html=1;fillColor=#000000;container=0;glass=0;" parent="1" vertex="1">
          <mxGeometry x="385" y="170" width="75" height="45" as="geometry" />
        </mxCell>
        <mxCell id="PVWl-y0vggtVZ4M3-jDT-3" value="" style="ellipse;whiteSpace=wrap;html=1;aspect=fixed;fillColor=#000000;container=0;" parent="1" vertex="1">
          <mxGeometry x="212" y="281" width="27" height="27" as="geometry" />
        </mxCell>
        <mxCell id="PVWl-y0vggtVZ4M3-jDT-4" value="" style="rounded=0;whiteSpace=wrap;html=1;fillColor=#e3c800;fontColor=#000000;strokeColor=#B09500;container=0;" parent="1" vertex="1">
          <mxGeometry x="130" width="200" height="82" as="geometry" />
        </mxCell>
        <mxCell id="PVWl-y0vggtVZ4M3-jDT-10" value="" style="rounded=0;whiteSpace=wrap;html=1;fillColor=#f5f5f5;container=0;strokeColor=#666666;fontColor=#333333;opacity=50;" parent="1" vertex="1">
          <mxGeometry x="370" y="145" width="45" height="194" as="geometry" />
        </mxCell>
        <mxCell id="PVWl-y0vggtVZ4M3-jDT-11" value="" style="rounded=1;whiteSpace=wrap;html=1;fillColor=#000000;container=0;arcSize=50;" parent="1" vertex="1">
          <mxGeometry x="370" y="331" width="20" height="8" as="geometry" />
        </mxCell>
        <mxCell id="PVWl-y0vggtVZ4M3-jDT-12" value="" style="rounded=1;whiteSpace=wrap;html=1;fillColor=#000000;container=0;arcSize=50;" parent="1" vertex="1">
          <mxGeometry x="370" y="145" width="20" height="8" as="geometry" />
        </mxCell>
        <mxCell id="PVWl-y0vggtVZ4M3-jDT-13" value="" style="rounded=1;whiteSpace=wrap;html=1;fillColor=#000000;direction=south;container=0;arcSize=50;" parent="1" vertex="1">
          <mxGeometry x="407" y="232" width="8" height="20" as="geometry" />
        </mxCell>
        <mxCell id="PVWl-y0vggtVZ4M3-jDT-21" value="" style="verticalLabelPosition=bottom;shadow=0;dashed=0;align=center;html=1;verticalAlign=top;shape=mxgraph.electrical.transmission.8_line_bus;strokeWidth=5;container=0;fillColor=#dae8fc;strokeColor=#6c8ebf;" parent="1" vertex="1">
          <mxGeometry x="350" y="170" width="20" height="145" as="geometry" />
        </mxCell>
        <mxCell id="PVWl-y0vggtVZ4M3-jDT-32" value="2.7&lt;div&gt;mm&lt;/div&gt;" style="shape=partialRectangle;whiteSpace=wrap;html=1;top=0;bottom=0;fillColor=none;" parent="1" vertex="1">
          <mxGeometry y="390" width="27" height="30" as="geometry" />
        </mxCell>
        <mxCell id="PVWl-y0vggtVZ4M3-jDT-34" value="" style="line;strokeWidth=2;html=1;dashed=1;strokeColor=#E6E6E6;" parent="1" vertex="1">
          <mxGeometry x="-10" y="237.5" width="570" height="10" as="geometry" />
        </mxCell>
        <mxCell id="PVWl-y0vggtVZ4M3-jDT-35" value="24.2mm" style="shape=curlyBracket;whiteSpace=wrap;html=1;rounded=1;labelPosition=left;verticalLabelPosition=middle;align=right;verticalAlign=middle;" parent="1" vertex="1">
          <mxGeometry x="-40" width="20" height="242" as="geometry" />
        </mxCell>
        <mxCell id="PVWl-y0vggtVZ4M3-jDT-46" value="" style="line;strokeWidth=2;html=1;dashed=1;strokeColor=#E6E6E6;" parent="1" vertex="1">
          <mxGeometry x="-10" y="165" width="710" height="10" as="geometry" />
        </mxCell>
        <mxCell id="PVWl-y0vggtVZ4M3-jDT-36" value="" style="line;strokeWidth=2;direction=south;html=1;dashed=1;strokeColor=#E6E6E6;" parent="1" vertex="1">
          <mxGeometry x="22" width="10" height="390" as="geometry" />
        </mxCell>
        <mxCell id="PVWl-y0vggtVZ4M3-jDT-16" value="" style="ellipse;whiteSpace=wrap;html=1;aspect=fixed;fillColor=#000000;container=0;" parent="1" vertex="1">
          <mxGeometry x="13" y="228.5" width="27" height="27" as="geometry" />
        </mxCell>
        <mxCell id="PVWl-y0vggtVZ4M3-jDT-37" value="2.7mm" style="shape=partialRectangle;whiteSpace=wrap;html=1;left=0;right=0;fillColor=none;dashed=1;" parent="1" vertex="1">
          <mxGeometry x="-90" y="229" width="90" height="27" as="geometry" />
        </mxCell>
        <mxCell id="PVWl-y0vggtVZ4M3-jDT-38" value="13.0mm" style="shape=partialRectangle;whiteSpace=wrap;html=1;top=0;bottom=0;fillColor=none;" parent="1" vertex="1">
          <mxGeometry y="-70" width="130" height="60" as="geometry" />
        </mxCell>
        <mxCell id="PVWl-y0vggtVZ4M3-jDT-39" value="20.0mm" style="shape=partialRectangle;whiteSpace=wrap;html=1;top=0;bottom=0;fillColor=none;" parent="1" vertex="1">
          <mxGeometry x="130" y="-70" width="200" height="60" as="geometry" />
        </mxCell>
        <mxCell id="PVWl-y0vggtVZ4M3-jDT-44" value="" style="line;strokeWidth=2;direction=south;html=1;dashed=1;strokeColor=#E6E6E6;" parent="1" vertex="1">
          <mxGeometry x="410" width="10" height="390" as="geometry" />
        </mxCell>
        <mxCell id="PVWl-y0vggtVZ4M3-jDT-47" value="17.0mm" style="shape=curlyBracket;whiteSpace=wrap;html=1;rounded=1;flipH=1;labelPosition=right;verticalLabelPosition=middle;align=left;verticalAlign=middle;" parent="1" vertex="1">
          <mxGeometry x="640" width="20" height="170" as="geometry" />
        </mxCell>
        <mxCell id="PVWl-y0vggtVZ4M3-jDT-48" value="" style="line;strokeWidth=2;html=1;dashed=1;strokeColor=#E6E6E6;" parent="1" vertex="1">
          <mxGeometry x="-10" y="210" width="570" height="10" as="geometry" />
        </mxCell>
        <mxCell id="PVWl-y0vggtVZ4M3-jDT-49" value="4.5mm" style="shape=curlyBracket;whiteSpace=wrap;html=1;rounded=1;flipH=1;labelPosition=right;verticalLabelPosition=middle;align=left;verticalAlign=middle;" parent="1" vertex="1">
          <mxGeometry x="569" y="170" width="20" height="45" as="geometry" />
        </mxCell>
        <mxCell id="PVWl-y0vggtVZ4M3-jDT-50" value="8.8mm" style="shape=curlyBracket;whiteSpace=wrap;html=1;rounded=1;flipH=1;labelPosition=right;verticalLabelPosition=middle;align=left;verticalAlign=middle;" parent="1" vertex="1">
          <mxGeometry x="710" y="82" width="20" height="88" as="geometry" />
        </mxCell>
        <mxCell id="PVWl-y0vggtVZ4M3-jDT-51" value="" style="line;strokeWidth=2;direction=south;html=1;dashed=1;strokeColor=#E6E6E6;" parent="1" vertex="1">
          <mxGeometry x="495" width="10" height="390" as="geometry" />
        </mxCell>
        <mxCell id="PVWl-y0vggtVZ4M3-jDT-53" value="7.5mm" style="shape=partialRectangle;whiteSpace=wrap;html=1;top=0;bottom=0;fillColor=none;" parent="1" vertex="1">
          <mxGeometry x="385" width="75" height="60" as="geometry" />
        </mxCell>
        <mxCell id="PVWl-y0vggtVZ4M3-jDT-54" value="" style="line;strokeWidth=2;direction=south;html=1;dashed=1;strokeColor=#E6E6E6;" parent="1" vertex="1">
          <mxGeometry x="365" y="120" width="10" height="350" as="geometry" />
        </mxCell>
        <mxCell id="PVWl-y0vggtVZ4M3-jDT-55" value="37.0mm" style="shape=partialRectangle;whiteSpace=wrap;html=1;top=0;bottom=0;fillColor=none;" parent="1" vertex="1">
          <mxGeometry y="470" width="370" height="40" as="geometry" />
        </mxCell>
        <mxCell id="PVWl-y0vggtVZ4M3-jDT-58" value="38.5mm" style="shape=partialRectangle;whiteSpace=wrap;html=1;top=0;bottom=0;fillColor=none;" parent="1" vertex="1">
          <mxGeometry y="450" width="385" height="40" as="geometry" />
        </mxCell>
        <mxCell id="PVWl-y0vggtVZ4M3-jDT-60" value="" style="line;strokeWidth=2;html=1;dashed=1;strokeColor=#E6E6E6;" parent="1" vertex="1">
          <mxGeometry x="-10" y="289.5" width="570" height="10" as="geometry" />
        </mxCell>
        <mxCell id="PVWl-y0vggtVZ4M3-jDT-61" value="" style="line;strokeWidth=2;direction=south;html=1;dashed=1;strokeColor=#E6E6E6;" parent="1" vertex="1">
          <mxGeometry x="220.5" y="122.5" width="10" height="287.5" as="geometry" />
        </mxCell>
        <mxCell id="PVWl-y0vggtVZ4M3-jDT-64" value="" style="line;strokeWidth=2;html=1;dashed=1;strokeColor=#E6E6E6;" parent="1" vertex="1">
          <mxGeometry x="4.5" y="425" width="221" height="10" as="geometry" />
        </mxCell>
        <mxCell id="PVWl-y0vggtVZ4M3-jDT-63" value="&lt;div&gt;22.5mm&lt;/div&gt;" style="shape=partialRectangle;whiteSpace=wrap;html=1;top=0;bottom=0;fillColor=none;" parent="1" vertex="1">
          <mxGeometry y="420" width="225.5" height="20" as="geometry" />
        </mxCell>
        <mxCell id="PVWl-y0vggtVZ4M3-jDT-65" value="2.7&lt;div&gt;mm&lt;/div&gt;" style="shape=partialRectangle;whiteSpace=wrap;html=1;top=0;bottom=0;fillColor=none;" parent="1" vertex="1">
          <mxGeometry x="212" y="390" width="27" height="30" as="geometry" />
        </mxCell>
        <mxCell id="PVWl-y0vggtVZ4M3-jDT-66" value="" style="rounded=1;whiteSpace=wrap;html=1;fillColor=#000000;container=0;arcSize=50;" parent="1" vertex="1">
          <mxGeometry x="440" y="412" width="20" height="8" as="geometry" />
        </mxCell>
        <mxCell id="PVWl-y0vggtVZ4M3-jDT-67" value="2.0mm x 0.8mm" style="text;html=1;align=center;verticalAlign=middle;resizable=0;points=[];autosize=1;strokeColor=none;fillColor=none;" parent="1" vertex="1">
          <mxGeometry x="460" y="401" width="110" height="30" as="geometry" />
        </mxCell>
        <mxCell id="PVWl-y0vggtVZ4M3-jDT-68" value="" style="shape=delay;whiteSpace=wrap;html=1;direction=south;fillColor=#000000;" parent="1" vertex="1">
          <mxGeometry x="197" width="12" height="30" as="geometry" />
        </mxCell>
        <mxCell id="PVWl-y0vggtVZ4M3-jDT-69" value="E" style="text;html=1;align=center;verticalAlign=middle;resizable=0;points=[];autosize=1;strokeColor=none;fillColor=none;" parent="1" vertex="1">
          <mxGeometry x="188" y="26" width="30" height="30" as="geometry" />
        </mxCell>
        <mxCell id="PVWl-y0vggtVZ4M3-jDT-70" value="" style="shape=delay;whiteSpace=wrap;html=1;direction=south;fillColor=#000000;" parent="1" vertex="1">
          <mxGeometry x="156" width="12" height="30" as="geometry" />
        </mxCell>
        <mxCell id="PVWl-y0vggtVZ4M3-jDT-71" value="A" style="text;html=1;align=center;verticalAlign=middle;resizable=0;points=[];autosize=1;strokeColor=none;fillColor=none;" parent="1" vertex="1">
          <mxGeometry x="147" y="26" width="30" height="30" as="geometry" />
        </mxCell>
        <mxCell id="PVWl-y0vggtVZ4M3-jDT-72" value="38.0mm" style="shape=curlyBracket;whiteSpace=wrap;html=1;rounded=1;labelPosition=left;verticalLabelPosition=middle;align=right;verticalAlign=middle;" parent="1" vertex="1">
          <mxGeometry x="-130" width="20" height="380" as="geometry" />
        </mxCell>
        <mxCell id="PVWl-y0vggtVZ4M3-jDT-74" value="13.0mm" style="shape=partialRectangle;whiteSpace=wrap;html=1;top=0;bottom=0;fillColor=none;" parent="1" vertex="1">
          <mxGeometry x="330" y="-70" width="130" height="60" as="geometry" />
        </mxCell>
      </root>
    </mxGraphModel>
  </diagram>
  <diagram id="KIUtmKDyN8QY_w1v8xTX" name="第 2 页">
    <mxGraphModel dx="1461" dy="828" grid="1" gridSize="10" guides="1" tooltips="1" connect="1" arrows="1" fold="1" page="1" pageScale="1" pageWidth="827" pageHeight="1169" math="0" shadow="0">
      <root>
        <mxCell id="0" />
        <mxCell id="1" parent="0" />
        <mxCell id="FzqIu2ftvrxxEQU80DvH-1" value="" style="rounded=0;whiteSpace=wrap;html=1;container=0;" parent="1" vertex="1">
          <mxGeometry x="400" y="892" width="540" height="298" as="geometry" />
        </mxCell>
        <mxCell id="FzqIu2ftvrxxEQU80DvH-2" value="" style="line;strokeWidth=2;direction=south;html=1;dashed=1;strokeColor=#E6E6E6;" parent="1" vertex="1">
          <mxGeometry x="780" y="810" width="10" height="450" as="geometry" />
        </mxCell>
        <mxCell id="FzqIu2ftvrxxEQU80DvH-3" value="" style="rounded=0;whiteSpace=wrap;html=1;fillColor=none;container=0;" parent="1" vertex="1">
          <mxGeometry x="400" y="955" width="370" height="194" as="geometry" />
        </mxCell>
        <mxCell id="FzqIu2ftvrxxEQU80DvH-4" value="" style="line;strokeWidth=2;html=1;dashed=1;strokeColor=#E6E6E6;" parent="1" vertex="1">
          <mxGeometry x="400" y="1275" width="380" height="10" as="geometry" />
        </mxCell>
        <mxCell id="FzqIu2ftvrxxEQU80DvH-5" value="" style="line;strokeWidth=2;html=1;dashed=1;strokeColor=#E6E6E6;" parent="1" vertex="1">
          <mxGeometry x="399" y="1255" width="411" height="10" as="geometry" />
        </mxCell>
        <mxCell id="FzqIu2ftvrxxEQU80DvH-6" value="" style="line;strokeWidth=2;html=1;dashed=1;strokeColor=#E6E6E6;" parent="1" vertex="1">
          <mxGeometry x="399" y="1295" width="371" height="10" as="geometry" />
        </mxCell>
        <mxCell id="FzqIu2ftvrxxEQU80DvH-7" value="8.2mm" style="shape=curlyBracket;whiteSpace=wrap;html=1;rounded=1;flipH=1;labelPosition=right;verticalLabelPosition=middle;align=left;verticalAlign=middle;" parent="1" vertex="1">
          <mxGeometry x="970" y="810" width="19" height="82" as="geometry" />
        </mxCell>
        <mxCell id="FzqIu2ftvrxxEQU80DvH-8" value="41.5mm" style="shape=partialRectangle;whiteSpace=wrap;html=1;top=0;bottom=0;fillColor=none;" parent="1" vertex="1">
          <mxGeometry x="400" y="1200" width="415" height="120" as="geometry" />
        </mxCell>
        <mxCell id="FzqIu2ftvrxxEQU80DvH-9" value="6.3mm" style="shape=curlyBracket;whiteSpace=wrap;html=1;rounded=1;flipH=1;labelPosition=right;verticalLabelPosition=middle;align=left;verticalAlign=middle;" parent="1" vertex="1">
          <mxGeometry x="970" y="892" width="20" height="63" as="geometry" />
        </mxCell>
        <mxCell id="FzqIu2ftvrxxEQU80DvH-10" value="" style="line;strokeWidth=2;html=1;dashed=1;strokeColor=#E6E6E6;" parent="1" vertex="1">
          <mxGeometry x="390" y="950" width="570" height="10" as="geometry" />
        </mxCell>
        <mxCell id="FzqIu2ftvrxxEQU80DvH-11" value="" style="rounded=0;whiteSpace=wrap;html=1;fillColor=#000000;container=0;glass=0;" parent="1" vertex="1">
          <mxGeometry x="785" y="980" width="115" height="45" as="geometry" />
        </mxCell>
        <mxCell id="FzqIu2ftvrxxEQU80DvH-12" value="" style="ellipse;whiteSpace=wrap;html=1;aspect=fixed;fillColor=#000000;container=0;" parent="1" vertex="1">
          <mxGeometry x="612" y="1091" width="27" height="27" as="geometry" />
        </mxCell>
        <mxCell id="FzqIu2ftvrxxEQU80DvH-13" value="" style="rounded=0;whiteSpace=wrap;html=1;fillColor=#e3c800;fontColor=#000000;strokeColor=#B09500;container=0;" parent="1" vertex="1">
          <mxGeometry x="530" y="810" width="200" height="82" as="geometry" />
        </mxCell>
        <mxCell id="FzqIu2ftvrxxEQU80DvH-14" value="" style="rounded=0;whiteSpace=wrap;html=1;fillColor=#f5f5f5;container=0;strokeColor=#666666;fontColor=#333333;opacity=50;" parent="1" vertex="1">
          <mxGeometry x="770" y="955" width="45" height="194" as="geometry" />
        </mxCell>
        <mxCell id="FzqIu2ftvrxxEQU80DvH-15" value="" style="rounded=1;whiteSpace=wrap;html=1;fillColor=#000000;container=0;arcSize=50;" parent="1" vertex="1">
          <mxGeometry x="770" y="1141" width="20" height="8" as="geometry" />
        </mxCell>
        <mxCell id="FzqIu2ftvrxxEQU80DvH-16" value="" style="rounded=1;whiteSpace=wrap;html=1;fillColor=#000000;container=0;arcSize=50;" parent="1" vertex="1">
          <mxGeometry x="770" y="955" width="20" height="8" as="geometry" />
        </mxCell>
        <mxCell id="FzqIu2ftvrxxEQU80DvH-17" value="" style="rounded=1;whiteSpace=wrap;html=1;fillColor=#000000;direction=south;container=0;arcSize=50;" parent="1" vertex="1">
          <mxGeometry x="807" y="1042" width="8" height="20" as="geometry" />
        </mxCell>
        <mxCell id="FzqIu2ftvrxxEQU80DvH-18" value="" style="verticalLabelPosition=bottom;shadow=0;dashed=0;align=center;html=1;verticalAlign=top;shape=mxgraph.electrical.transmission.8_line_bus;strokeWidth=5;container=0;fillColor=#dae8fc;strokeColor=#6c8ebf;" parent="1" vertex="1">
          <mxGeometry x="750" y="980" width="20" height="145" as="geometry" />
        </mxCell>
        <mxCell id="FzqIu2ftvrxxEQU80DvH-19" value="2.7&lt;div&gt;mm&lt;/div&gt;" style="shape=partialRectangle;whiteSpace=wrap;html=1;top=0;bottom=0;fillColor=none;" parent="1" vertex="1">
          <mxGeometry x="400" y="1200" width="27" height="30" as="geometry" />
        </mxCell>
        <mxCell id="FzqIu2ftvrxxEQU80DvH-20" value="" style="line;strokeWidth=2;html=1;dashed=1;strokeColor=#E6E6E6;" parent="1" vertex="1">
          <mxGeometry x="390" y="1047.5" width="570" height="10" as="geometry" />
        </mxCell>
        <mxCell id="FzqIu2ftvrxxEQU80DvH-21" value="24.2mm" style="shape=curlyBracket;whiteSpace=wrap;html=1;rounded=1;labelPosition=left;verticalLabelPosition=middle;align=right;verticalAlign=middle;" parent="1" vertex="1">
          <mxGeometry x="360" y="810" width="20" height="242" as="geometry" />
        </mxCell>
        <mxCell id="FzqIu2ftvrxxEQU80DvH-22" value="" style="line;strokeWidth=2;html=1;dashed=1;strokeColor=#E6E6E6;" parent="1" vertex="1">
          <mxGeometry x="390" y="975" width="570" height="10" as="geometry" />
        </mxCell>
        <mxCell id="FzqIu2ftvrxxEQU80DvH-23" value="" style="line;strokeWidth=2;direction=south;html=1;dashed=1;strokeColor=#E6E6E6;" parent="1" vertex="1">
          <mxGeometry x="422" y="810" width="10" height="390" as="geometry" />
        </mxCell>
        <mxCell id="FzqIu2ftvrxxEQU80DvH-24" value="" style="ellipse;whiteSpace=wrap;html=1;aspect=fixed;fillColor=#000000;container=0;" parent="1" vertex="1">
          <mxGeometry x="413" y="1038.5" width="27" height="27" as="geometry" />
        </mxCell>
        <mxCell id="FzqIu2ftvrxxEQU80DvH-25" value="2.7mm" style="shape=partialRectangle;whiteSpace=wrap;html=1;left=0;right=0;fillColor=none;dashed=1;" parent="1" vertex="1">
          <mxGeometry x="280" y="1039" width="120" height="27" as="geometry" />
        </mxCell>
        <mxCell id="FzqIu2ftvrxxEQU80DvH-26" value="13.0mm" style="shape=partialRectangle;whiteSpace=wrap;html=1;top=0;bottom=0;fillColor=none;" parent="1" vertex="1">
          <mxGeometry x="400" y="740" width="130" height="60" as="geometry" />
        </mxCell>
        <mxCell id="FzqIu2ftvrxxEQU80DvH-27" value="20.0mm" style="shape=partialRectangle;whiteSpace=wrap;html=1;top=0;bottom=0;fillColor=none;" parent="1" vertex="1">
          <mxGeometry x="530" y="740" width="200" height="60" as="geometry" />
        </mxCell>
        <mxCell id="FzqIu2ftvrxxEQU80DvH-28" value="" style="line;strokeWidth=2;direction=south;html=1;dashed=1;strokeColor=#E6E6E6;" parent="1" vertex="1">
          <mxGeometry x="810" y="810" width="10" height="390" as="geometry" />
        </mxCell>
        <mxCell id="FzqIu2ftvrxxEQU80DvH-29" value="17.0mm" style="shape=curlyBracket;whiteSpace=wrap;html=1;rounded=1;flipH=1;labelPosition=right;verticalLabelPosition=middle;align=left;verticalAlign=middle;" parent="1" vertex="1">
          <mxGeometry x="1040" y="810" width="20" height="170" as="geometry" />
        </mxCell>
        <mxCell id="FzqIu2ftvrxxEQU80DvH-30" value="" style="line;strokeWidth=2;html=1;dashed=1;strokeColor=#E6E6E6;" parent="1" vertex="1">
          <mxGeometry x="390" y="1020" width="570" height="10" as="geometry" />
        </mxCell>
        <mxCell id="FzqIu2ftvrxxEQU80DvH-31" value="4.5mm" style="shape=curlyBracket;whiteSpace=wrap;html=1;rounded=1;flipH=1;labelPosition=right;verticalLabelPosition=middle;align=left;verticalAlign=middle;" parent="1" vertex="1">
          <mxGeometry x="969" y="980" width="20" height="45" as="geometry" />
        </mxCell>
        <mxCell id="FzqIu2ftvrxxEQU80DvH-32" value="8.8mm" style="shape=curlyBracket;whiteSpace=wrap;html=1;rounded=1;flipH=1;labelPosition=right;verticalLabelPosition=middle;align=left;verticalAlign=middle;" parent="1" vertex="1">
          <mxGeometry x="1110" y="892" width="20" height="88" as="geometry" />
        </mxCell>
        <mxCell id="FzqIu2ftvrxxEQU80DvH-33" value="" style="line;strokeWidth=2;direction=south;html=1;dashed=1;strokeColor=#E6E6E6;" parent="1" vertex="1">
          <mxGeometry x="895" y="810" width="10" height="390" as="geometry" />
        </mxCell>
        <mxCell id="FzqIu2ftvrxxEQU80DvH-34" value="11.5mm" style="shape=partialRectangle;whiteSpace=wrap;html=1;top=0;bottom=0;fillColor=none;" parent="1" vertex="1">
          <mxGeometry x="785" y="740" width="115" height="60" as="geometry" />
        </mxCell>
        <mxCell id="FzqIu2ftvrxxEQU80DvH-35" value="" style="line;strokeWidth=2;direction=south;html=1;dashed=1;strokeColor=#E6E6E6;" parent="1" vertex="1">
          <mxGeometry x="765" y="930" width="10" height="350" as="geometry" />
        </mxCell>
        <mxCell id="FzqIu2ftvrxxEQU80DvH-36" value="37.0mm" style="shape=partialRectangle;whiteSpace=wrap;html=1;top=0;bottom=0;fillColor=none;" parent="1" vertex="1">
          <mxGeometry x="400" y="1280" width="370" height="40" as="geometry" />
        </mxCell>
        <mxCell id="FzqIu2ftvrxxEQU80DvH-37" value="38.5mm" style="shape=partialRectangle;whiteSpace=wrap;html=1;top=0;bottom=0;fillColor=none;" parent="1" vertex="1">
          <mxGeometry x="400" y="1260" width="385" height="40" as="geometry" />
        </mxCell>
        <mxCell id="FzqIu2ftvrxxEQU80DvH-38" value="" style="line;strokeWidth=2;html=1;dashed=1;strokeColor=#E6E6E6;" parent="1" vertex="1">
          <mxGeometry x="390" y="1099.5" width="570" height="10" as="geometry" />
        </mxCell>
        <mxCell id="FzqIu2ftvrxxEQU80DvH-39" value="" style="line;strokeWidth=2;direction=south;html=1;dashed=1;strokeColor=#E6E6E6;" parent="1" vertex="1">
          <mxGeometry x="620.5" y="932.5" width="10" height="287.5" as="geometry" />
        </mxCell>
        <mxCell id="FzqIu2ftvrxxEQU80DvH-40" value="" style="line;strokeWidth=2;html=1;dashed=1;strokeColor=#E6E6E6;" parent="1" vertex="1">
          <mxGeometry x="404.5" y="1235" width="221" height="10" as="geometry" />
        </mxCell>
        <mxCell id="FzqIu2ftvrxxEQU80DvH-41" value="&lt;div&gt;22.5mm&lt;/div&gt;" style="shape=partialRectangle;whiteSpace=wrap;html=1;top=0;bottom=0;fillColor=none;" parent="1" vertex="1">
          <mxGeometry x="400" y="1230" width="225.5" height="20" as="geometry" />
        </mxCell>
        <mxCell id="FzqIu2ftvrxxEQU80DvH-42" value="2.7&lt;div&gt;mm&lt;/div&gt;" style="shape=partialRectangle;whiteSpace=wrap;html=1;top=0;bottom=0;fillColor=none;" parent="1" vertex="1">
          <mxGeometry x="612" y="1200" width="27" height="30" as="geometry" />
        </mxCell>
        <mxCell id="FzqIu2ftvrxxEQU80DvH-43" value="" style="rounded=1;whiteSpace=wrap;html=1;fillColor=#000000;container=0;arcSize=50;" parent="1" vertex="1">
          <mxGeometry x="840" y="1222" width="20" height="8" as="geometry" />
        </mxCell>
        <mxCell id="FzqIu2ftvrxxEQU80DvH-44" value="2.0mm x 0.8mm" style="text;html=1;align=center;verticalAlign=middle;resizable=0;points=[];autosize=1;strokeColor=none;fillColor=none;" parent="1" vertex="1">
          <mxGeometry x="860" y="1211" width="110" height="30" as="geometry" />
        </mxCell>
        <mxCell id="FzqIu2ftvrxxEQU80DvH-45" value="" style="shape=delay;whiteSpace=wrap;html=1;direction=south;fillColor=#000000;" parent="1" vertex="1">
          <mxGeometry x="597" y="810" width="12" height="30" as="geometry" />
        </mxCell>
        <mxCell id="FzqIu2ftvrxxEQU80DvH-46" value="E" style="text;html=1;align=center;verticalAlign=middle;resizable=0;points=[];autosize=1;strokeColor=none;fillColor=none;" parent="1" vertex="1">
          <mxGeometry x="588" y="836" width="30" height="30" as="geometry" />
        </mxCell>
        <mxCell id="FzqIu2ftvrxxEQU80DvH-47" value="" style="shape=delay;whiteSpace=wrap;html=1;direction=south;fillColor=#000000;" parent="1" vertex="1">
          <mxGeometry x="556" y="810" width="12" height="30" as="geometry" />
        </mxCell>
        <mxCell id="FzqIu2ftvrxxEQU80DvH-48" value="A" style="text;html=1;align=center;verticalAlign=middle;resizable=0;points=[];autosize=1;strokeColor=none;fillColor=none;" parent="1" vertex="1">
          <mxGeometry x="547" y="836" width="30" height="30" as="geometry" />
        </mxCell>
        <mxCell id="9bMs4pu7P5m984Qb-E-p-1" value="" style="rounded=0;whiteSpace=wrap;html=1;fillColor=#000000;" vertex="1" parent="1">
          <mxGeometry x="894" y="892" width="46" height="77" as="geometry" />
        </mxCell>
      </root>
    </mxGraphModel>
  </diagram>
  <diagram id="Sg8pWxV1fMZm0ZNsuSCz" name="第 3 页">
    <mxGraphModel dx="1392" dy="1119" grid="1" gridSize="10" guides="1" tooltips="1" connect="1" arrows="1" fold="1" page="1" pageScale="1" pageWidth="827" pageHeight="1169" math="0" shadow="0">
      <root>
        <mxCell id="0" />
        <mxCell id="1" parent="0" />
        <mxCell id="xQj1OFP3nj8kC5RYs2Og-1" style="edgeStyle=orthogonalEdgeStyle;rounded=0;orthogonalLoop=1;jettySize=auto;html=1;exitX=1;exitY=0.5;exitDx=0;exitDy=0;entryX=1;entryY=0.5;entryDx=0;entryDy=0;strokeColor=light-dark(#ff0000, #ededed);" edge="1" parent="1" source="xQj1OFP3nj8kC5RYs2Og-28" target="xQj1OFP3nj8kC5RYs2Og-80">
          <mxGeometry relative="1" as="geometry">
            <Array as="points">
              <mxPoint x="550" y="860" />
              <mxPoint x="550" y="600" />
              <mxPoint x="810" y="600" />
              <mxPoint x="810" y="830" />
            </Array>
          </mxGeometry>
        </mxCell>
        <mxCell id="xQj1OFP3nj8kC5RYs2Og-2" style="edgeStyle=orthogonalEdgeStyle;rounded=0;orthogonalLoop=1;jettySize=auto;html=1;exitX=1;exitY=0.5;exitDx=0;exitDy=0;entryX=1;entryY=0.25;entryDx=0;entryDy=0;strokeColor=#FF0000;" edge="1" parent="1" source="xQj1OFP3nj8kC5RYs2Og-28" target="xQj1OFP3nj8kC5RYs2Og-75">
          <mxGeometry relative="1" as="geometry">
            <Array as="points">
              <mxPoint x="550" y="860" />
              <mxPoint x="550" y="1575" />
            </Array>
          </mxGeometry>
        </mxCell>
        <mxCell id="xQj1OFP3nj8kC5RYs2Og-3" style="edgeStyle=orthogonalEdgeStyle;rounded=0;orthogonalLoop=1;jettySize=auto;html=1;exitX=1;exitY=0.5;exitDx=0;exitDy=0;entryX=1;entryY=0.5;entryDx=0;entryDy=0;strokeColor=#FF0000;" edge="1" parent="1" source="xQj1OFP3nj8kC5RYs2Og-28" target="xQj1OFP3nj8kC5RYs2Og-72">
          <mxGeometry relative="1" as="geometry">
            <mxPoint x="510" y="1550" as="targetPoint" />
            <Array as="points">
              <mxPoint x="550" y="860" />
              <mxPoint x="550" y="1480" />
            </Array>
          </mxGeometry>
        </mxCell>
        <mxCell id="xQj1OFP3nj8kC5RYs2Og-4" style="edgeStyle=orthogonalEdgeStyle;rounded=0;orthogonalLoop=1;jettySize=auto;html=1;exitX=1;exitY=0.5;exitDx=0;exitDy=0;entryX=1;entryY=0.5;entryDx=0;entryDy=0;strokeColor=#FF3333;" edge="1" parent="1" source="xQj1OFP3nj8kC5RYs2Og-28" target="xQj1OFP3nj8kC5RYs2Og-69">
          <mxGeometry relative="1" as="geometry">
            <Array as="points">
              <mxPoint x="550" y="860" />
              <mxPoint x="550" y="1390" />
            </Array>
          </mxGeometry>
        </mxCell>
        <mxCell id="xQj1OFP3nj8kC5RYs2Og-5" style="edgeStyle=orthogonalEdgeStyle;rounded=0;orthogonalLoop=1;jettySize=auto;html=1;exitX=1;exitY=0.5;exitDx=0;exitDy=0;entryX=1;entryY=0.5;entryDx=0;entryDy=0;strokeColor=#FF3333;" edge="1" parent="1" source="xQj1OFP3nj8kC5RYs2Og-28" target="xQj1OFP3nj8kC5RYs2Og-66">
          <mxGeometry relative="1" as="geometry">
            <Array as="points">
              <mxPoint x="550" y="860" />
              <mxPoint x="550" y="1300" />
            </Array>
          </mxGeometry>
        </mxCell>
        <mxCell id="xQj1OFP3nj8kC5RYs2Og-6" style="edgeStyle=orthogonalEdgeStyle;rounded=0;orthogonalLoop=1;jettySize=auto;html=1;exitX=1;exitY=0.5;exitDx=0;exitDy=0;entryX=1;entryY=0.5;entryDx=0;entryDy=0;strokeColor=light-dark(#ff0000, #ededed);" edge="1" parent="1" source="xQj1OFP3nj8kC5RYs2Og-28" target="xQj1OFP3nj8kC5RYs2Og-63">
          <mxGeometry relative="1" as="geometry">
            <Array as="points">
              <mxPoint x="550" y="860" />
              <mxPoint x="550" y="1210" />
            </Array>
          </mxGeometry>
        </mxCell>
        <mxCell id="xQj1OFP3nj8kC5RYs2Og-7" style="edgeStyle=orthogonalEdgeStyle;rounded=0;orthogonalLoop=1;jettySize=auto;html=1;exitX=1;exitY=0.5;exitDx=0;exitDy=0;entryX=1;entryY=0.5;entryDx=0;entryDy=0;strokeColor=#FF0000;" edge="1" parent="1" source="xQj1OFP3nj8kC5RYs2Og-28" target="xQj1OFP3nj8kC5RYs2Og-60">
          <mxGeometry relative="1" as="geometry">
            <Array as="points">
              <mxPoint x="550" y="860" />
              <mxPoint x="550" y="1120" />
            </Array>
          </mxGeometry>
        </mxCell>
        <mxCell id="xQj1OFP3nj8kC5RYs2Og-8" style="edgeStyle=orthogonalEdgeStyle;rounded=0;orthogonalLoop=1;jettySize=auto;html=1;exitX=1;exitY=0.5;exitDx=0;exitDy=0;entryX=1;entryY=0.5;entryDx=0;entryDy=0;strokeColor=#FF0000;" edge="1" parent="1" source="xQj1OFP3nj8kC5RYs2Og-28" target="xQj1OFP3nj8kC5RYs2Og-57">
          <mxGeometry relative="1" as="geometry">
            <Array as="points">
              <mxPoint x="550" y="860" />
              <mxPoint x="550" y="1030" />
            </Array>
          </mxGeometry>
        </mxCell>
        <mxCell id="xQj1OFP3nj8kC5RYs2Og-9" style="edgeStyle=orthogonalEdgeStyle;rounded=0;orthogonalLoop=1;jettySize=auto;html=1;exitX=1;exitY=0.5;exitDx=0;exitDy=0;entryX=1;entryY=0.5;entryDx=0;entryDy=0;strokeColor=#FF0000;" edge="1" parent="1" source="xQj1OFP3nj8kC5RYs2Og-28" target="xQj1OFP3nj8kC5RYs2Og-54">
          <mxGeometry relative="1" as="geometry">
            <Array as="points">
              <mxPoint x="550" y="860" />
              <mxPoint x="550" y="940" />
            </Array>
          </mxGeometry>
        </mxCell>
        <mxCell id="xQj1OFP3nj8kC5RYs2Og-10" style="edgeStyle=orthogonalEdgeStyle;rounded=0;orthogonalLoop=1;jettySize=auto;html=1;exitX=1;exitY=0.5;exitDx=0;exitDy=0;entryX=1;entryY=0.5;entryDx=0;entryDy=0;strokeColor=#FF0000;" edge="1" parent="1" source="xQj1OFP3nj8kC5RYs2Og-28" target="xQj1OFP3nj8kC5RYs2Og-24">
          <mxGeometry relative="1" as="geometry">
            <Array as="points">
              <mxPoint x="550" y="860" />
              <mxPoint x="550" y="660" />
            </Array>
          </mxGeometry>
        </mxCell>
        <mxCell id="xQj1OFP3nj8kC5RYs2Og-11" style="edgeStyle=orthogonalEdgeStyle;rounded=0;orthogonalLoop=1;jettySize=auto;html=1;exitX=1;exitY=0.5;exitDx=0;exitDy=0;entryX=1;entryY=0.5;entryDx=0;entryDy=0;strokeColor=#FF0000;" edge="1" parent="1" source="xQj1OFP3nj8kC5RYs2Og-28" target="xQj1OFP3nj8kC5RYs2Og-49">
          <mxGeometry relative="1" as="geometry">
            <Array as="points">
              <mxPoint x="550" y="860" />
              <mxPoint x="550" y="750" />
            </Array>
          </mxGeometry>
        </mxCell>
        <mxCell id="xQj1OFP3nj8kC5RYs2Og-12" style="edgeStyle=orthogonalEdgeStyle;rounded=0;orthogonalLoop=1;jettySize=auto;html=1;exitX=1;exitY=0.5;exitDx=0;exitDy=0;entryX=1;entryY=0.5;entryDx=0;entryDy=0;strokeColor=#FF0000;" edge="1" parent="1" source="xQj1OFP3nj8kC5RYs2Og-42" target="xQj1OFP3nj8kC5RYs2Og-54">
          <mxGeometry relative="1" as="geometry">
            <Array as="points">
              <mxPoint x="550" y="1130" />
              <mxPoint x="550" y="940" />
            </Array>
          </mxGeometry>
        </mxCell>
        <mxCell id="xQj1OFP3nj8kC5RYs2Og-13" style="edgeStyle=orthogonalEdgeStyle;rounded=0;orthogonalLoop=1;jettySize=auto;html=1;exitX=1;exitY=0.5;exitDx=0;exitDy=0;entryX=1;entryY=0.5;entryDx=0;entryDy=0;strokeColor=#FF0000;" edge="1" parent="1" source="xQj1OFP3nj8kC5RYs2Og-36" target="xQj1OFP3nj8kC5RYs2Og-57">
          <mxGeometry relative="1" as="geometry">
            <Array as="points">
              <mxPoint x="550" y="1040" />
              <mxPoint x="550" y="1030" />
            </Array>
          </mxGeometry>
        </mxCell>
        <mxCell id="xQj1OFP3nj8kC5RYs2Og-14" style="edgeStyle=orthogonalEdgeStyle;rounded=0;orthogonalLoop=1;jettySize=auto;html=1;exitX=1;exitY=0.5;exitDx=0;exitDy=0;entryX=1;entryY=0.5;entryDx=0;entryDy=0;strokeColor=#FF0000;" edge="1" parent="1" source="xQj1OFP3nj8kC5RYs2Og-32" target="xQj1OFP3nj8kC5RYs2Og-54">
          <mxGeometry relative="1" as="geometry">
            <mxPoint x="550" y="860" as="targetPoint" />
            <Array as="points">
              <mxPoint x="550" y="950" />
              <mxPoint x="550" y="940" />
            </Array>
          </mxGeometry>
        </mxCell>
        <mxCell id="xQj1OFP3nj8kC5RYs2Og-15" style="edgeStyle=orthogonalEdgeStyle;rounded=0;orthogonalLoop=1;jettySize=auto;html=1;exitX=1;exitY=0.5;exitDx=0;exitDy=0;entryX=1;entryY=0.5;entryDx=0;entryDy=0;jumpStyle=arc;" edge="1" parent="1" source="xQj1OFP3nj8kC5RYs2Og-29" target="xQj1OFP3nj8kC5RYs2Og-59">
          <mxGeometry relative="1" as="geometry">
            <Array as="points">
              <mxPoint x="540" y="890" />
              <mxPoint x="540" y="1090" />
            </Array>
          </mxGeometry>
        </mxCell>
        <mxCell id="xQj1OFP3nj8kC5RYs2Og-16" style="edgeStyle=orthogonalEdgeStyle;rounded=0;orthogonalLoop=1;jettySize=auto;html=1;exitX=1;exitY=0.5;exitDx=0;exitDy=0;entryX=1;entryY=0.5;entryDx=0;entryDy=0;strokeColor=#00CC00;movable=0;resizable=0;rotatable=0;deletable=0;editable=0;locked=1;connectable=0;" edge="1" parent="1" source="xQj1OFP3nj8kC5RYs2Og-18" target="xQj1OFP3nj8kC5RYs2Og-104">
          <mxGeometry relative="1" as="geometry">
            <Array as="points">
              <mxPoint x="340" y="660" />
              <mxPoint x="340" y="550" />
              <mxPoint x="940" y="550" />
              <mxPoint x="940" y="1570" />
            </Array>
          </mxGeometry>
        </mxCell>
        <mxCell id="xQj1OFP3nj8kC5RYs2Og-17" style="edgeStyle=orthogonalEdgeStyle;rounded=0;orthogonalLoop=1;jettySize=auto;html=1;exitX=1;exitY=0.5;exitDx=0;exitDy=0;entryX=1;entryY=0.5;entryDx=0;entryDy=0;strokeColor=#00CC00;movable=1;resizable=1;rotatable=1;deletable=1;editable=1;locked=0;connectable=1;" edge="1" parent="1" source="xQj1OFP3nj8kC5RYs2Og-18" target="xQj1OFP3nj8kC5RYs2Og-103">
          <mxGeometry relative="1" as="geometry">
            <Array as="points">
              <mxPoint x="340" y="660" />
              <mxPoint x="340" y="550" />
              <mxPoint x="940" y="550" />
              <mxPoint x="940" y="1540" />
            </Array>
          </mxGeometry>
        </mxCell>
        <mxCell id="xQj1OFP3nj8kC5RYs2Og-18" value="1" style="shape=delay;whiteSpace=wrap;html=1;" vertex="1" parent="1">
          <mxGeometry x="250" y="650" width="80" height="20" as="geometry" />
        </mxCell>
        <mxCell id="xQj1OFP3nj8kC5RYs2Og-19" style="edgeStyle=orthogonalEdgeStyle;rounded=0;orthogonalLoop=1;jettySize=auto;html=1;exitX=1;exitY=0.5;exitDx=0;exitDy=0;entryX=1;entryY=0.5;entryDx=0;entryDy=0;jumpStyle=arc;" edge="1" parent="1" source="xQj1OFP3nj8kC5RYs2Og-20" target="xQj1OFP3nj8kC5RYs2Og-47">
          <mxGeometry relative="1" as="geometry" />
        </mxCell>
        <mxCell id="xQj1OFP3nj8kC5RYs2Og-20" value="2" style="shape=delay;whiteSpace=wrap;html=1;" vertex="1" parent="1">
          <mxGeometry x="250" y="680" width="80" height="20" as="geometry" />
        </mxCell>
        <mxCell id="xQj1OFP3nj8kC5RYs2Og-21" style="edgeStyle=orthogonalEdgeStyle;rounded=0;orthogonalLoop=1;jettySize=auto;html=1;exitX=1;exitY=0.5;exitDx=0;exitDy=0;entryX=1;entryY=0.5;entryDx=0;entryDy=0;jumpStyle=arc;" edge="1" parent="1" source="xQj1OFP3nj8kC5RYs2Og-22" target="xQj1OFP3nj8kC5RYs2Og-48">
          <mxGeometry relative="1" as="geometry" />
        </mxCell>
        <mxCell id="xQj1OFP3nj8kC5RYs2Og-22" value="3" style="shape=delay;whiteSpace=wrap;html=1;" vertex="1" parent="1">
          <mxGeometry x="250" y="710" width="80" height="20" as="geometry" />
        </mxCell>
        <mxCell id="xQj1OFP3nj8kC5RYs2Og-23" value="4" style="shape=delay;whiteSpace=wrap;html=1;" vertex="1" parent="1">
          <mxGeometry x="250" y="740" width="80" height="20" as="geometry" />
        </mxCell>
        <mxCell id="xQj1OFP3nj8kC5RYs2Og-24" value="1" style="shape=delay;whiteSpace=wrap;html=1;direction=west;fillColor=#f8cecc;strokeColor=#b85450;" vertex="1" parent="1">
          <mxGeometry x="570" y="650" width="80" height="20" as="geometry" />
        </mxCell>
        <mxCell id="xQj1OFP3nj8kC5RYs2Og-25" value="6" style="shape=delay;whiteSpace=wrap;html=1;" vertex="1" parent="1">
          <mxGeometry x="250" y="800" width="80" height="20" as="geometry" />
        </mxCell>
        <mxCell id="xQj1OFP3nj8kC5RYs2Og-26" style="edgeStyle=orthogonalEdgeStyle;rounded=0;orthogonalLoop=1;jettySize=auto;html=1;exitX=1;exitY=0.5;exitDx=0;exitDy=0;entryX=1;entryY=0.5;entryDx=0;entryDy=0;jumpStyle=arc;" edge="1" parent="1" target="xQj1OFP3nj8kC5RYs2Og-93">
          <mxGeometry relative="1" as="geometry">
            <mxPoint x="310" y="780" as="sourcePoint" />
            <mxPoint x="770" y="1240" as="targetPoint" />
            <Array as="points">
              <mxPoint x="350" y="780" />
              <mxPoint x="350" y="560" />
              <mxPoint x="850" y="560" />
              <mxPoint x="850" y="1240" />
            </Array>
          </mxGeometry>
        </mxCell>
        <mxCell id="xQj1OFP3nj8kC5RYs2Og-27" value="5" style="shape=delay;whiteSpace=wrap;html=1;" vertex="1" parent="1">
          <mxGeometry x="250" y="770" width="80" height="20" as="geometry" />
        </mxCell>
        <mxCell id="xQj1OFP3nj8kC5RYs2Og-28" value="1" style="shape=delay;whiteSpace=wrap;html=1;fillColor=#f8cecc;strokeColor=#b85450;" vertex="1" parent="1">
          <mxGeometry x="250" y="850" width="80" height="20" as="geometry" />
        </mxCell>
        <mxCell id="xQj1OFP3nj8kC5RYs2Og-29" value="2" style="shape=delay;whiteSpace=wrap;html=1;" vertex="1" parent="1">
          <mxGeometry x="250" y="880" width="80" height="20" as="geometry" />
        </mxCell>
        <mxCell id="xQj1OFP3nj8kC5RYs2Og-30" style="edgeStyle=orthogonalEdgeStyle;rounded=0;orthogonalLoop=1;jettySize=auto;html=1;exitX=1;exitY=0.5;exitDx=0;exitDy=0;entryX=1;entryY=0.5;entryDx=0;entryDy=0;jumpStyle=arc;" edge="1" parent="1" source="xQj1OFP3nj8kC5RYs2Og-31" target="xQj1OFP3nj8kC5RYs2Og-58">
          <mxGeometry relative="1" as="geometry">
            <Array as="points">
              <mxPoint x="520" y="920" />
              <mxPoint x="520" y="1060" />
            </Array>
          </mxGeometry>
        </mxCell>
        <mxCell id="xQj1OFP3nj8kC5RYs2Og-31" value="3" style="shape=delay;whiteSpace=wrap;html=1;" vertex="1" parent="1">
          <mxGeometry x="250" y="910" width="80" height="20" as="geometry" />
        </mxCell>
        <mxCell id="xQj1OFP3nj8kC5RYs2Og-32" value="4" style="shape=delay;whiteSpace=wrap;html=1;fillColor=#f8cecc;strokeColor=#b85450;" vertex="1" parent="1">
          <mxGeometry x="250" y="940" width="80" height="20" as="geometry" />
        </mxCell>
        <mxCell id="xQj1OFP3nj8kC5RYs2Og-33" style="edgeStyle=orthogonalEdgeStyle;rounded=0;orthogonalLoop=1;jettySize=auto;html=1;exitX=1;exitY=0.5;exitDx=0;exitDy=0;entryX=1;entryY=0.5;entryDx=0;entryDy=0;jumpStyle=arc;" edge="1" parent="1" source="xQj1OFP3nj8kC5RYs2Og-34" target="xQj1OFP3nj8kC5RYs2Og-61">
          <mxGeometry relative="1" as="geometry">
            <Array as="points">
              <mxPoint x="510" y="1010" />
              <mxPoint x="510" y="1150" />
            </Array>
          </mxGeometry>
        </mxCell>
        <mxCell id="xQj1OFP3nj8kC5RYs2Og-34" value="6" style="shape=delay;whiteSpace=wrap;html=1;" vertex="1" parent="1">
          <mxGeometry x="250" y="1000" width="80" height="20" as="geometry" />
        </mxCell>
        <mxCell id="xQj1OFP3nj8kC5RYs2Og-35" value="5" style="shape=delay;whiteSpace=wrap;html=1;" vertex="1" parent="1">
          <mxGeometry x="250" y="970" width="80" height="20" as="geometry" />
        </mxCell>
        <mxCell id="xQj1OFP3nj8kC5RYs2Og-36" value="7" style="shape=delay;whiteSpace=wrap;html=1;fillColor=#f8cecc;strokeColor=#b85450;" vertex="1" parent="1">
          <mxGeometry x="250" y="1030" width="80" height="20" as="geometry" />
        </mxCell>
        <mxCell id="xQj1OFP3nj8kC5RYs2Og-37" style="edgeStyle=orthogonalEdgeStyle;rounded=0;orthogonalLoop=1;jettySize=auto;html=1;exitX=1;exitY=0.5;exitDx=0;exitDy=0;entryX=1;entryY=0.5;entryDx=0;entryDy=0;jumpStyle=arc;" edge="1" parent="1" source="xQj1OFP3nj8kC5RYs2Og-38" target="xQj1OFP3nj8kC5RYs2Og-56">
          <mxGeometry relative="1" as="geometry">
            <Array as="points">
              <mxPoint x="490" y="1070" />
              <mxPoint x="490" y="1000" />
            </Array>
          </mxGeometry>
        </mxCell>
        <mxCell id="xQj1OFP3nj8kC5RYs2Og-38" value="8" style="shape=delay;whiteSpace=wrap;html=1;" vertex="1" parent="1">
          <mxGeometry x="250" y="1060" width="80" height="20" as="geometry" />
        </mxCell>
        <mxCell id="xQj1OFP3nj8kC5RYs2Og-39" style="edgeStyle=orthogonalEdgeStyle;rounded=0;orthogonalLoop=1;jettySize=auto;html=1;exitX=1;exitY=0.5;exitDx=0;exitDy=0;entryX=1;entryY=0.5;entryDx=0;entryDy=0;jumpStyle=arc;" edge="1" parent="1" source="xQj1OFP3nj8kC5RYs2Og-40" target="xQj1OFP3nj8kC5RYs2Og-55">
          <mxGeometry relative="1" as="geometry">
            <Array as="points">
              <mxPoint x="470" y="1100" />
              <mxPoint x="470" y="970" />
            </Array>
          </mxGeometry>
        </mxCell>
        <mxCell id="xQj1OFP3nj8kC5RYs2Og-40" value="9" style="shape=delay;whiteSpace=wrap;html=1;" vertex="1" parent="1">
          <mxGeometry x="250" y="1090" width="80" height="20" as="geometry" />
        </mxCell>
        <mxCell id="xQj1OFP3nj8kC5RYs2Og-41" style="edgeStyle=orthogonalEdgeStyle;rounded=0;orthogonalLoop=1;jettySize=auto;html=1;exitX=1;exitY=0.5;exitDx=0;exitDy=0;entryX=1;entryY=0.5;entryDx=0;entryDy=0;jumpStyle=arc;" edge="1" parent="1" source="xQj1OFP3nj8kC5RYs2Og-35" target="xQj1OFP3nj8kC5RYs2Og-62">
          <mxGeometry relative="1" as="geometry">
            <Array as="points">
              <mxPoint x="440" y="980" />
              <mxPoint x="440" y="1180" />
            </Array>
          </mxGeometry>
        </mxCell>
        <mxCell id="xQj1OFP3nj8kC5RYs2Og-42" value="10" style="shape=delay;whiteSpace=wrap;html=1;fillColor=#f8cecc;strokeColor=#b85450;" vertex="1" parent="1">
          <mxGeometry x="250" y="1120" width="80" height="20" as="geometry" />
        </mxCell>
        <mxCell id="xQj1OFP3nj8kC5RYs2Og-43" style="edgeStyle=orthogonalEdgeStyle;rounded=0;orthogonalLoop=1;jettySize=auto;html=1;exitX=1;exitY=0.5;exitDx=0;exitDy=0;entryX=1;entryY=0.5;entryDx=0;entryDy=0;strokeColor=#6666FF;jumpStyle=arc;" edge="1" parent="1" source="xQj1OFP3nj8kC5RYs2Og-45" target="xQj1OFP3nj8kC5RYs2Og-76">
          <mxGeometry relative="1" as="geometry">
            <Array as="points">
              <mxPoint x="370" y="1190" />
              <mxPoint x="370" y="580" />
              <mxPoint x="830" y="580" />
              <mxPoint x="830" y="670" />
            </Array>
          </mxGeometry>
        </mxCell>
        <mxCell id="xQj1OFP3nj8kC5RYs2Og-44" style="edgeStyle=orthogonalEdgeStyle;rounded=0;orthogonalLoop=1;jettySize=auto;html=1;exitX=1;exitY=0.5;exitDx=0;exitDy=0;entryX=1;entryY=0.5;entryDx=0;entryDy=0;strokeColor=#6666FF;jumpStyle=arc;" edge="1" parent="1" source="xQj1OFP3nj8kC5RYs2Og-45" target="xQj1OFP3nj8kC5RYs2Og-77">
          <mxGeometry relative="1" as="geometry">
            <Array as="points">
              <mxPoint x="370" y="1190" />
              <mxPoint x="370" y="580" />
              <mxPoint x="830" y="580" />
              <mxPoint x="830" y="700" />
            </Array>
          </mxGeometry>
        </mxCell>
        <mxCell id="xQj1OFP3nj8kC5RYs2Og-45" value="12" style="shape=delay;whiteSpace=wrap;html=1;" vertex="1" parent="1">
          <mxGeometry x="250" y="1180" width="80" height="20" as="geometry" />
        </mxCell>
        <mxCell id="xQj1OFP3nj8kC5RYs2Og-46" value="11" style="shape=delay;whiteSpace=wrap;html=1;" vertex="1" parent="1">
          <mxGeometry x="250" y="1150" width="80" height="20" as="geometry" />
        </mxCell>
        <mxCell id="xQj1OFP3nj8kC5RYs2Og-47" value="2" style="shape=delay;whiteSpace=wrap;html=1;direction=west;" vertex="1" parent="1">
          <mxGeometry x="570" y="680" width="80" height="20" as="geometry" />
        </mxCell>
        <mxCell id="xQj1OFP3nj8kC5RYs2Og-48" value="3" style="shape=delay;whiteSpace=wrap;html=1;direction=west;" vertex="1" parent="1">
          <mxGeometry x="570" y="710" width="80" height="20" as="geometry" />
        </mxCell>
        <mxCell id="xQj1OFP3nj8kC5RYs2Og-49" value="4" style="shape=delay;whiteSpace=wrap;html=1;direction=west;fillColor=#f8cecc;strokeColor=#b85450;" vertex="1" parent="1">
          <mxGeometry x="570" y="740" width="80" height="20" as="geometry" />
        </mxCell>
        <mxCell id="xQj1OFP3nj8kC5RYs2Og-50" value="1" style="shape=delay;whiteSpace=wrap;html=1;direction=west;" vertex="1" parent="1">
          <mxGeometry x="570" y="790" width="80" height="20" as="geometry" />
        </mxCell>
        <mxCell id="xQj1OFP3nj8kC5RYs2Og-51" value="2" style="shape=delay;whiteSpace=wrap;html=1;direction=west;" vertex="1" parent="1">
          <mxGeometry x="570" y="820" width="80" height="20" as="geometry" />
        </mxCell>
        <mxCell id="xQj1OFP3nj8kC5RYs2Og-52" value="3" style="shape=delay;whiteSpace=wrap;html=1;direction=west;" vertex="1" parent="1">
          <mxGeometry x="570" y="850" width="80" height="20" as="geometry" />
        </mxCell>
        <mxCell id="xQj1OFP3nj8kC5RYs2Og-53" value="4" style="shape=delay;whiteSpace=wrap;html=1;direction=west;" vertex="1" parent="1">
          <mxGeometry x="570" y="880" width="80" height="20" as="geometry" />
        </mxCell>
        <mxCell id="xQj1OFP3nj8kC5RYs2Og-54" value="1" style="shape=delay;whiteSpace=wrap;html=1;direction=west;fillColor=#f8cecc;strokeColor=#b85450;" vertex="1" parent="1">
          <mxGeometry x="570" y="930" width="80" height="20" as="geometry" />
        </mxCell>
        <mxCell id="xQj1OFP3nj8kC5RYs2Og-55" value="2" style="shape=delay;whiteSpace=wrap;html=1;direction=west;" vertex="1" parent="1">
          <mxGeometry x="570" y="960" width="80" height="20" as="geometry" />
        </mxCell>
        <mxCell id="xQj1OFP3nj8kC5RYs2Og-56" value="3" style="shape=delay;whiteSpace=wrap;html=1;direction=west;" vertex="1" parent="1">
          <mxGeometry x="570" y="990" width="80" height="20" as="geometry" />
        </mxCell>
        <mxCell id="xQj1OFP3nj8kC5RYs2Og-57" value="4" style="shape=delay;whiteSpace=wrap;html=1;direction=west;fillColor=#f8cecc;strokeColor=#b85450;" vertex="1" parent="1">
          <mxGeometry x="570" y="1020" width="80" height="20" as="geometry" />
        </mxCell>
        <mxCell id="xQj1OFP3nj8kC5RYs2Og-58" value="5" style="shape=delay;whiteSpace=wrap;html=1;direction=west;" vertex="1" parent="1">
          <mxGeometry x="570" y="1050" width="80" height="20" as="geometry" />
        </mxCell>
        <mxCell id="xQj1OFP3nj8kC5RYs2Og-59" value="6" style="shape=delay;whiteSpace=wrap;html=1;direction=west;" vertex="1" parent="1">
          <mxGeometry x="570" y="1080" width="80" height="20" as="geometry" />
        </mxCell>
        <mxCell id="xQj1OFP3nj8kC5RYs2Og-60" value="7" style="shape=delay;whiteSpace=wrap;html=1;direction=west;fillColor=#f8cecc;strokeColor=#b85450;" vertex="1" parent="1">
          <mxGeometry x="570" y="1110" width="80" height="20" as="geometry" />
        </mxCell>
        <mxCell id="xQj1OFP3nj8kC5RYs2Og-61" value="8" style="shape=delay;whiteSpace=wrap;html=1;direction=west;" vertex="1" parent="1">
          <mxGeometry x="570" y="1140" width="80" height="20" as="geometry" />
        </mxCell>
        <mxCell id="xQj1OFP3nj8kC5RYs2Og-62" value="9" style="shape=delay;whiteSpace=wrap;html=1;direction=west;" vertex="1" parent="1">
          <mxGeometry x="570" y="1170" width="80" height="20" as="geometry" />
        </mxCell>
        <mxCell id="xQj1OFP3nj8kC5RYs2Og-63" value="10" style="shape=delay;whiteSpace=wrap;html=1;direction=west;fillColor=#f8cecc;strokeColor=#b85450;" vertex="1" parent="1">
          <mxGeometry x="570" y="1200" width="80" height="20" as="geometry" />
        </mxCell>
        <mxCell id="xQj1OFP3nj8kC5RYs2Og-64" value="11" style="shape=delay;whiteSpace=wrap;html=1;direction=west;" vertex="1" parent="1">
          <mxGeometry x="570" y="1230" width="80" height="20" as="geometry" />
        </mxCell>
        <mxCell id="xQj1OFP3nj8kC5RYs2Og-65" value="12" style="shape=delay;whiteSpace=wrap;html=1;direction=west;" vertex="1" parent="1">
          <mxGeometry x="570" y="1260" width="80" height="20" as="geometry" />
        </mxCell>
        <mxCell id="xQj1OFP3nj8kC5RYs2Og-66" value="13" style="shape=delay;whiteSpace=wrap;html=1;direction=west;fillColor=#f8cecc;strokeColor=#b85450;" vertex="1" parent="1">
          <mxGeometry x="570" y="1290" width="80" height="20" as="geometry" />
        </mxCell>
        <mxCell id="xQj1OFP3nj8kC5RYs2Og-67" value="14" style="shape=delay;whiteSpace=wrap;html=1;direction=west;" vertex="1" parent="1">
          <mxGeometry x="570" y="1320" width="80" height="20" as="geometry" />
        </mxCell>
        <mxCell id="xQj1OFP3nj8kC5RYs2Og-68" value="15" style="shape=delay;whiteSpace=wrap;html=1;direction=west;" vertex="1" parent="1">
          <mxGeometry x="570" y="1350" width="80" height="20" as="geometry" />
        </mxCell>
        <mxCell id="xQj1OFP3nj8kC5RYs2Og-69" value="16" style="shape=delay;whiteSpace=wrap;html=1;direction=west;fillColor=#f8cecc;strokeColor=#b85450;" vertex="1" parent="1">
          <mxGeometry x="570" y="1380" width="80" height="20" as="geometry" />
        </mxCell>
        <mxCell id="xQj1OFP3nj8kC5RYs2Og-70" value="17" style="shape=delay;whiteSpace=wrap;html=1;direction=west;" vertex="1" parent="1">
          <mxGeometry x="570" y="1410" width="80" height="20" as="geometry" />
        </mxCell>
        <mxCell id="xQj1OFP3nj8kC5RYs2Og-71" value="18" style="shape=delay;whiteSpace=wrap;html=1;direction=west;" vertex="1" parent="1">
          <mxGeometry x="570" y="1440" width="80" height="20" as="geometry" />
        </mxCell>
        <mxCell id="xQj1OFP3nj8kC5RYs2Og-72" value="19" style="shape=delay;whiteSpace=wrap;html=1;direction=west;fillColor=#f8cecc;strokeColor=#b85450;" vertex="1" parent="1">
          <mxGeometry x="570" y="1470" width="80" height="20" as="geometry" />
        </mxCell>
        <mxCell id="xQj1OFP3nj8kC5RYs2Og-73" value="20" style="shape=delay;whiteSpace=wrap;html=1;direction=west;" vertex="1" parent="1">
          <mxGeometry x="570" y="1500" width="80" height="20" as="geometry" />
        </mxCell>
        <mxCell id="xQj1OFP3nj8kC5RYs2Og-74" value="21" style="shape=delay;whiteSpace=wrap;html=1;direction=west;" vertex="1" parent="1">
          <mxGeometry x="570" y="1530" width="80" height="20" as="geometry" />
        </mxCell>
        <mxCell id="xQj1OFP3nj8kC5RYs2Og-75" value="22" style="shape=delay;whiteSpace=wrap;html=1;direction=west;fillColor=#f8cecc;strokeColor=#b85450;" vertex="1" parent="1">
          <mxGeometry x="570" y="1560" width="80" height="20" as="geometry" />
        </mxCell>
        <mxCell id="xQj1OFP3nj8kC5RYs2Og-76" value="1" style="shape=delay;whiteSpace=wrap;html=1;direction=east;" vertex="1" parent="1">
          <mxGeometry x="710" y="660" width="80" height="20" as="geometry" />
        </mxCell>
        <mxCell id="xQj1OFP3nj8kC5RYs2Og-77" value="2" style="shape=delay;whiteSpace=wrap;html=1;direction=east;" vertex="1" parent="1">
          <mxGeometry x="710" y="690" width="80" height="20" as="geometry" />
        </mxCell>
        <mxCell id="xQj1OFP3nj8kC5RYs2Og-78" value="3" style="shape=delay;whiteSpace=wrap;html=1;direction=east;" vertex="1" parent="1">
          <mxGeometry x="710" y="720" width="80" height="20" as="geometry" />
        </mxCell>
        <mxCell id="xQj1OFP3nj8kC5RYs2Og-79" value="1" style="shape=delay;whiteSpace=wrap;html=1;direction=east;" vertex="1" parent="1">
          <mxGeometry x="710" y="790" width="80" height="20" as="geometry" />
        </mxCell>
        <mxCell id="xQj1OFP3nj8kC5RYs2Og-80" value="2" style="shape=delay;whiteSpace=wrap;html=1;direction=east;fillColor=#f8cecc;strokeColor=#b85450;" vertex="1" parent="1">
          <mxGeometry x="710" y="820" width="80" height="20" as="geometry" />
        </mxCell>
        <mxCell id="xQj1OFP3nj8kC5RYs2Og-81" value="3" style="shape=delay;whiteSpace=wrap;html=1;direction=east;" vertex="1" parent="1">
          <mxGeometry x="710" y="850" width="80" height="20" as="geometry" />
        </mxCell>
        <mxCell id="xQj1OFP3nj8kC5RYs2Og-82" value="4" style="shape=delay;whiteSpace=wrap;html=1;direction=east;" vertex="1" parent="1">
          <mxGeometry x="710" y="880" width="80" height="20" as="geometry" />
        </mxCell>
        <mxCell id="xQj1OFP3nj8kC5RYs2Og-83" value="1" style="shape=delay;whiteSpace=wrap;html=1;direction=east;" vertex="1" parent="1">
          <mxGeometry x="710" y="930" width="80" height="20" as="geometry" />
        </mxCell>
        <mxCell id="xQj1OFP3nj8kC5RYs2Og-84" value="2" style="shape=delay;whiteSpace=wrap;html=1;direction=east;" vertex="1" parent="1">
          <mxGeometry x="710" y="960" width="80" height="20" as="geometry" />
        </mxCell>
        <mxCell id="xQj1OFP3nj8kC5RYs2Og-85" value="3" style="shape=delay;whiteSpace=wrap;html=1;direction=east;" vertex="1" parent="1">
          <mxGeometry x="710" y="990" width="80" height="20" as="geometry" />
        </mxCell>
        <mxCell id="xQj1OFP3nj8kC5RYs2Og-86" value="4" style="shape=delay;whiteSpace=wrap;html=1;direction=east;" vertex="1" parent="1">
          <mxGeometry x="710" y="1020" width="80" height="20" as="geometry" />
        </mxCell>
        <mxCell id="xQj1OFP3nj8kC5RYs2Og-87" value="5" style="shape=delay;whiteSpace=wrap;html=1;direction=east;" vertex="1" parent="1">
          <mxGeometry x="710" y="1050" width="80" height="20" as="geometry" />
        </mxCell>
        <mxCell id="xQj1OFP3nj8kC5RYs2Og-88" value="6" style="shape=delay;whiteSpace=wrap;html=1;direction=east;" vertex="1" parent="1">
          <mxGeometry x="710" y="1080" width="80" height="20" as="geometry" />
        </mxCell>
        <mxCell id="xQj1OFP3nj8kC5RYs2Og-89" value="7" style="shape=delay;whiteSpace=wrap;html=1;direction=east;" vertex="1" parent="1">
          <mxGeometry x="710" y="1110" width="80" height="20" as="geometry" />
        </mxCell>
        <mxCell id="xQj1OFP3nj8kC5RYs2Og-90" value="8" style="shape=delay;whiteSpace=wrap;html=1;direction=east;" vertex="1" parent="1">
          <mxGeometry x="710" y="1140" width="80" height="20" as="geometry" />
        </mxCell>
        <mxCell id="xQj1OFP3nj8kC5RYs2Og-91" value="9" style="shape=delay;whiteSpace=wrap;html=1;direction=east;" vertex="1" parent="1">
          <mxGeometry x="710" y="1170" width="80" height="20" as="geometry" />
        </mxCell>
        <mxCell id="xQj1OFP3nj8kC5RYs2Og-92" value="10" style="shape=delay;whiteSpace=wrap;html=1;direction=east;" vertex="1" parent="1">
          <mxGeometry x="710" y="1200" width="80" height="20" as="geometry" />
        </mxCell>
        <mxCell id="xQj1OFP3nj8kC5RYs2Og-93" value="11" style="shape=delay;whiteSpace=wrap;html=1;direction=east;" vertex="1" parent="1">
          <mxGeometry x="710" y="1230" width="80" height="20" as="geometry" />
        </mxCell>
        <mxCell id="xQj1OFP3nj8kC5RYs2Og-94" value="12" style="shape=delay;whiteSpace=wrap;html=1;direction=east;" vertex="1" parent="1">
          <mxGeometry x="710" y="1260" width="80" height="20" as="geometry" />
        </mxCell>
        <mxCell id="xQj1OFP3nj8kC5RYs2Og-95" value="13" style="shape=delay;whiteSpace=wrap;html=1;direction=east;" vertex="1" parent="1">
          <mxGeometry x="710" y="1290" width="80" height="20" as="geometry" />
        </mxCell>
        <mxCell id="xQj1OFP3nj8kC5RYs2Og-96" value="14" style="shape=delay;whiteSpace=wrap;html=1;direction=east;" vertex="1" parent="1">
          <mxGeometry x="710" y="1320" width="80" height="20" as="geometry" />
        </mxCell>
        <mxCell id="xQj1OFP3nj8kC5RYs2Og-97" value="15" style="shape=delay;whiteSpace=wrap;html=1;direction=east;" vertex="1" parent="1">
          <mxGeometry x="710" y="1350" width="80" height="20" as="geometry" />
        </mxCell>
        <mxCell id="xQj1OFP3nj8kC5RYs2Og-98" value="16" style="shape=delay;whiteSpace=wrap;html=1;direction=east;" vertex="1" parent="1">
          <mxGeometry x="710" y="1380" width="80" height="20" as="geometry" />
        </mxCell>
        <mxCell id="xQj1OFP3nj8kC5RYs2Og-99" value="17" style="shape=delay;whiteSpace=wrap;html=1;direction=east;" vertex="1" parent="1">
          <mxGeometry x="710" y="1410" width="80" height="20" as="geometry" />
        </mxCell>
        <mxCell id="xQj1OFP3nj8kC5RYs2Og-100" value="18" style="shape=delay;whiteSpace=wrap;html=1;direction=east;" vertex="1" parent="1">
          <mxGeometry x="710" y="1440" width="80" height="20" as="geometry" />
        </mxCell>
        <mxCell id="xQj1OFP3nj8kC5RYs2Og-101" value="19" style="shape=delay;whiteSpace=wrap;html=1;direction=east;" vertex="1" parent="1">
          <mxGeometry x="710" y="1470" width="80" height="20" as="geometry" />
        </mxCell>
        <mxCell id="xQj1OFP3nj8kC5RYs2Og-102" value="20" style="shape=delay;whiteSpace=wrap;html=1;direction=east;" vertex="1" parent="1">
          <mxGeometry x="710" y="1500" width="80" height="20" as="geometry" />
        </mxCell>
        <mxCell id="xQj1OFP3nj8kC5RYs2Og-103" value="21" style="shape=delay;whiteSpace=wrap;html=1;direction=east;" vertex="1" parent="1">
          <mxGeometry x="710" y="1530" width="80" height="20" as="geometry" />
        </mxCell>
        <mxCell id="xQj1OFP3nj8kC5RYs2Og-104" value="22" style="shape=delay;whiteSpace=wrap;html=1;direction=east;" vertex="1" parent="1">
          <mxGeometry x="710" y="1560" width="80" height="20" as="geometry" />
        </mxCell>
        <mxCell id="xQj1OFP3nj8kC5RYs2Og-105" style="edgeStyle=orthogonalEdgeStyle;rounded=0;orthogonalLoop=1;jettySize=auto;html=1;exitX=1;exitY=0.5;exitDx=0;exitDy=0;entryX=1;entryY=0.5;entryDx=0;entryDy=0;jumpStyle=arc;" edge="1" parent="1" source="xQj1OFP3nj8kC5RYs2Og-23" target="xQj1OFP3nj8kC5RYs2Og-64">
          <mxGeometry relative="1" as="geometry">
            <Array as="points">
              <mxPoint x="410" y="750" />
              <mxPoint x="410" y="1240" />
            </Array>
          </mxGeometry>
        </mxCell>
        <mxCell id="xQj1OFP3nj8kC5RYs2Og-106" style="edgeStyle=orthogonalEdgeStyle;rounded=0;orthogonalLoop=1;jettySize=auto;html=1;exitX=1;exitY=0.5;exitDx=0;exitDy=0;entryX=1;entryY=0.5;entryDx=0;entryDy=0;jumpStyle=arc;" edge="1" parent="1" source="xQj1OFP3nj8kC5RYs2Og-25" target="xQj1OFP3nj8kC5RYs2Og-65">
          <mxGeometry relative="1" as="geometry">
            <Array as="points">
              <mxPoint x="390" y="810" />
              <mxPoint x="390" y="1270" />
            </Array>
          </mxGeometry>
        </mxCell>
        <mxCell id="xQj1OFP3nj8kC5RYs2Og-107" value="M.2 正面" style="text;html=1;align=center;verticalAlign=middle;resizable=0;points=[];autosize=1;strokeColor=none;fillColor=none;" vertex="1" parent="1">
          <mxGeometry x="575" y="608" width="70" height="30" as="geometry" />
        </mxCell>
        <mxCell id="xQj1OFP3nj8kC5RYs2Og-108" value="M.2 反面" style="text;html=1;align=center;verticalAlign=middle;resizable=0;points=[];autosize=1;strokeColor=none;fillColor=none;" vertex="1" parent="1">
          <mxGeometry x="715" y="608" width="70" height="30" as="geometry" />
        </mxCell>
      </root>
    </mxGraphModel>
  </diagram>
  <diagram id="ymIvNyLMEx9jyre1yCwm" name="第 4 页">
    <mxGraphModel dx="793" dy="434" grid="1" gridSize="10" guides="1" tooltips="1" connect="1" arrows="1" fold="1" page="1" pageScale="1" pageWidth="827" pageHeight="1169" math="0" shadow="0">
      <root>
        <mxCell id="0" />
        <mxCell id="1" parent="0" />
        <mxCell id="-pbray9Jhm7YjrMZC_uj-1" value="" style="rounded=0;whiteSpace=wrap;html=1;container=0;" vertex="1" parent="1">
          <mxGeometry x="560" y="790" width="435" height="214" as="geometry" />
        </mxCell>
        <mxCell id="-pbray9Jhm7YjrMZC_uj-8" value="42.5mm" style="shape=partialRectangle;whiteSpace=wrap;html=1;top=0;bottom=0;fillColor=none;" vertex="1" parent="1">
          <mxGeometry x="560" y="1085" width="425" height="15" as="geometry" />
        </mxCell>
        <mxCell id="-pbray9Jhm7YjrMZC_uj-12" value="" style="ellipse;whiteSpace=wrap;html=1;aspect=fixed;fillColor=#000000;container=0;" vertex="1" parent="1">
          <mxGeometry x="672" y="911" width="27" height="27" as="geometry" />
        </mxCell>
        <mxCell id="-pbray9Jhm7YjrMZC_uj-13" value="" style="rounded=0;whiteSpace=wrap;html=1;fillColor=#e3c800;fontColor=#000000;strokeColor=#B09500;container=0;" vertex="1" parent="1">
          <mxGeometry x="590" y="630" width="200" height="160" as="geometry" />
        </mxCell>
        <mxCell id="-pbray9Jhm7YjrMZC_uj-22" value="" style="line;strokeWidth=2;html=1;dashed=1;strokeColor=#E6E6E6;" vertex="1" parent="1">
          <mxGeometry x="1000" y="795" width="20" height="10" as="geometry" />
        </mxCell>
        <mxCell id="-pbray9Jhm7YjrMZC_uj-25" value="10.7&lt;div&gt;mm&lt;/div&gt;" style="shape=partialRectangle;whiteSpace=wrap;html=1;left=0;right=0;fillColor=none;dashed=1;" vertex="1" parent="1">
          <mxGeometry x="520" y="790" width="30" height="107" as="geometry" />
        </mxCell>
        <mxCell id="-pbray9Jhm7YjrMZC_uj-26" value="3.0&lt;div&gt;mm&lt;/div&gt;" style="shape=partialRectangle;whiteSpace=wrap;html=1;top=0;bottom=0;fillColor=none;" vertex="1" parent="1">
          <mxGeometry x="560" y="560" width="30" height="60" as="geometry" />
        </mxCell>
        <mxCell id="-pbray9Jhm7YjrMZC_uj-27" value="20.0mm" style="shape=partialRectangle;whiteSpace=wrap;html=1;top=0;bottom=0;fillColor=none;" vertex="1" parent="1">
          <mxGeometry x="590" y="560" width="200" height="60" as="geometry" />
        </mxCell>
        <mxCell id="-pbray9Jhm7YjrMZC_uj-29" value="16.0mm" style="shape=curlyBracket;whiteSpace=wrap;html=1;rounded=1;flipH=1;labelPosition=right;verticalLabelPosition=middle;align=left;verticalAlign=middle;" vertex="1" parent="1">
          <mxGeometry x="1030" y="630" width="20" height="160" as="geometry" />
        </mxCell>
        <mxCell id="-pbray9Jhm7YjrMZC_uj-31" value="1.0mm" style="shape=curlyBracket;whiteSpace=wrap;html=1;rounded=1;flipH=1;labelPosition=right;verticalLabelPosition=middle;align=left;verticalAlign=middle;" vertex="1" parent="1">
          <mxGeometry x="1030" y="790" width="20" height="10" as="geometry" />
        </mxCell>
        <mxCell id="-pbray9Jhm7YjrMZC_uj-32" value="8.8mm" style="shape=curlyBracket;whiteSpace=wrap;html=1;rounded=1;flipH=1;labelPosition=right;verticalLabelPosition=middle;align=left;verticalAlign=middle;" vertex="1" parent="1">
          <mxGeometry x="1170" y="712" width="20" height="88" as="geometry" />
        </mxCell>
        <mxCell id="-pbray9Jhm7YjrMZC_uj-33" value="" style="line;strokeWidth=2;direction=south;html=1;dashed=1;strokeColor=#E6E6E6;" vertex="1" parent="1">
          <mxGeometry x="990" y="630" width="10" height="160" as="geometry" />
        </mxCell>
        <mxCell id="-pbray9Jhm7YjrMZC_uj-34" value="20.5mm" style="shape=partialRectangle;whiteSpace=wrap;html=1;top=0;bottom=0;fillColor=none;" vertex="1" parent="1">
          <mxGeometry x="790" y="560" width="205" height="60" as="geometry" />
        </mxCell>
        <mxCell id="-pbray9Jhm7YjrMZC_uj-36" value="38.0mm" style="shape=partialRectangle;whiteSpace=wrap;html=1;top=0;bottom=0;fillColor=none;" vertex="1" parent="1">
          <mxGeometry x="560" y="1061" width="380" height="19" as="geometry" />
        </mxCell>
        <mxCell id="-pbray9Jhm7YjrMZC_uj-37" value="38.5mm" style="shape=partialRectangle;whiteSpace=wrap;html=1;top=0;bottom=0;fillColor=none;" vertex="1" parent="1">
          <mxGeometry x="585" y="1240" width="385" height="40" as="geometry" />
        </mxCell>
        <mxCell id="-pbray9Jhm7YjrMZC_uj-38" value="" style="line;strokeWidth=2;html=1;dashed=1;strokeColor=#E6E6E6;" vertex="1" parent="1">
          <mxGeometry x="450" y="919.5" width="250" height="10" as="geometry" />
        </mxCell>
        <mxCell id="-pbray9Jhm7YjrMZC_uj-39" value="" style="line;strokeWidth=2;direction=south;html=1;dashed=1;strokeColor=#E6E6E6;" vertex="1" parent="1">
          <mxGeometry x="680.5" y="910" width="10" height="120" as="geometry" />
        </mxCell>
        <mxCell id="-pbray9Jhm7YjrMZC_uj-41" value="&lt;div&gt;12.6mm&lt;/div&gt;" style="shape=partialRectangle;whiteSpace=wrap;html=1;top=0;bottom=0;fillColor=none;" vertex="1" parent="1">
          <mxGeometry x="560" y="1036" width="126" height="20" as="geometry" />
        </mxCell>
        <mxCell id="-pbray9Jhm7YjrMZC_uj-43" value="" style="rounded=1;whiteSpace=wrap;html=1;fillColor=#000000;container=0;arcSize=50;" vertex="1" parent="1">
          <mxGeometry x="850" y="1151" width="20" height="8" as="geometry" />
        </mxCell>
        <mxCell id="-pbray9Jhm7YjrMZC_uj-44" value="2.0mm x 0.8mm" style="text;html=1;align=center;verticalAlign=middle;resizable=0;points=[];autosize=1;strokeColor=none;fillColor=none;" vertex="1" parent="1">
          <mxGeometry x="860" y="1140" width="110" height="30" as="geometry" />
        </mxCell>
        <mxCell id="-pbray9Jhm7YjrMZC_uj-45" value="" style="shape=delay;whiteSpace=wrap;html=1;direction=south;fillColor=#000000;" vertex="1" parent="1">
          <mxGeometry x="657" y="630" width="12" height="30" as="geometry" />
        </mxCell>
        <mxCell id="-pbray9Jhm7YjrMZC_uj-46" value="E" style="text;html=1;align=center;verticalAlign=middle;resizable=0;points=[];autosize=1;strokeColor=none;fillColor=none;" vertex="1" parent="1">
          <mxGeometry x="648" y="656" width="30" height="30" as="geometry" />
        </mxCell>
        <mxCell id="-pbray9Jhm7YjrMZC_uj-47" value="" style="shape=delay;whiteSpace=wrap;html=1;direction=south;fillColor=#000000;" vertex="1" parent="1">
          <mxGeometry x="616" y="630" width="12" height="30" as="geometry" />
        </mxCell>
        <mxCell id="-pbray9Jhm7YjrMZC_uj-48" value="A" style="text;html=1;align=center;verticalAlign=middle;resizable=0;points=[];autosize=1;strokeColor=none;fillColor=none;" vertex="1" parent="1">
          <mxGeometry x="607" y="656" width="30" height="30" as="geometry" />
        </mxCell>
        <mxCell id="-pbray9Jhm7YjrMZC_uj-51" value="" style="group" vertex="1" connectable="0" parent="1">
          <mxGeometry x="570" y="800" width="415" height="260" as="geometry" />
        </mxCell>
        <mxCell id="-pbray9Jhm7YjrMZC_uj-3" value="" style="rounded=0;whiteSpace=wrap;html=1;fillColor=none;container=0;" vertex="1" parent="-pbray9Jhm7YjrMZC_uj-51">
          <mxGeometry width="370" height="194" as="geometry" />
        </mxCell>
        <mxCell id="-pbray9Jhm7YjrMZC_uj-14" value="" style="rounded=0;whiteSpace=wrap;html=1;fillColor=#f5f5f5;container=0;strokeColor=#666666;fontColor=#333333;opacity=50;" vertex="1" parent="-pbray9Jhm7YjrMZC_uj-51">
          <mxGeometry x="370" width="45" height="194" as="geometry" />
        </mxCell>
        <mxCell id="-pbray9Jhm7YjrMZC_uj-15" value="" style="rounded=1;whiteSpace=wrap;html=1;fillColor=#000000;container=0;arcSize=50;" vertex="1" parent="-pbray9Jhm7YjrMZC_uj-51">
          <mxGeometry x="370" y="186" width="20" height="8" as="geometry" />
        </mxCell>
        <mxCell id="-pbray9Jhm7YjrMZC_uj-16" value="" style="rounded=1;whiteSpace=wrap;html=1;fillColor=#000000;container=0;arcSize=50;" vertex="1" parent="-pbray9Jhm7YjrMZC_uj-51">
          <mxGeometry x="370" width="20" height="8" as="geometry" />
        </mxCell>
        <mxCell id="-pbray9Jhm7YjrMZC_uj-17" value="" style="rounded=1;whiteSpace=wrap;html=1;fillColor=#000000;direction=south;container=0;arcSize=50;" vertex="1" parent="-pbray9Jhm7YjrMZC_uj-51">
          <mxGeometry x="407" y="87" width="8" height="20" as="geometry" />
        </mxCell>
        <mxCell id="-pbray9Jhm7YjrMZC_uj-18" value="" style="verticalLabelPosition=bottom;shadow=0;dashed=0;align=center;html=1;verticalAlign=top;shape=mxgraph.electrical.transmission.8_line_bus;strokeWidth=5;container=0;fillColor=#dae8fc;strokeColor=#6c8ebf;" vertex="1" parent="-pbray9Jhm7YjrMZC_uj-51">
          <mxGeometry x="350" y="25" width="20" height="145" as="geometry" />
        </mxCell>
        <mxCell id="-pbray9Jhm7YjrMZC_uj-24" value="" style="ellipse;whiteSpace=wrap;html=1;aspect=fixed;fillColor=#000000;container=0;" vertex="1" parent="-pbray9Jhm7YjrMZC_uj-51">
          <mxGeometry x="13" y="83.5" width="27" height="27" as="geometry" />
        </mxCell>
        <mxCell id="-pbray9Jhm7YjrMZC_uj-28" value="" style="line;strokeWidth=2;direction=south;html=1;dashed=1;strokeColor=#E6E6E6;" vertex="1" parent="-pbray9Jhm7YjrMZC_uj-51">
          <mxGeometry x="365" y="210" width="10" height="40" as="geometry" />
        </mxCell>
        <mxCell id="VWBsUAnqBspWW276FmUI-1" value="&lt;div&gt;3.6&lt;/div&gt;&lt;div&gt;mm&lt;/div&gt;" style="shape=partialRectangle;whiteSpace=wrap;html=1;top=0;bottom=0;fillColor=none;" vertex="1" parent="1">
          <mxGeometry x="560" y="1010" width="36" height="20" as="geometry" />
        </mxCell>
        <mxCell id="-pbray9Jhm7YjrMZC_uj-35" value="" style="line;strokeWidth=2;direction=south;html=1;dashed=1;strokeColor=#E6E6E6;" vertex="1" parent="1">
          <mxGeometry x="591" y="890" width="10" height="120" as="geometry" />
        </mxCell>
        <mxCell id="-pbray9Jhm7YjrMZC_uj-30" value="" style="line;strokeWidth=2;html=1;dashed=1;strokeColor=#E6E6E6;" vertex="1" parent="1">
          <mxGeometry x="550" y="892" width="60" height="10" as="geometry" />
        </mxCell>
        <mxCell id="VWBsUAnqBspWW276FmUI-2" value="13.4&lt;div&gt;mm&lt;/div&gt;" style="shape=partialRectangle;whiteSpace=wrap;html=1;left=0;right=0;fillColor=none;dashed=1;" vertex="1" parent="1">
          <mxGeometry x="480" y="790" width="30" height="134" as="geometry" />
        </mxCell>
      </root>
    </mxGraphModel>
  </diagram>
</mxfile>
